<?xml version="1.0" encoding="UTF-8"?>
<svg version="1.1" xmlns="http://www.w3.org/2000/svg" width="512" height="512">
<path d="M0 0 C1.14755469 -0.00453111 2.29510938 -0.00906223 3.47743845 -0.01373065 C7.29607656 -0.02632046 11.11457106 -0.02475775 14.93322754 -0.02310181 C17.68231742 -0.02800788 20.43139743 -0.03584111 23.18048096 -0.04345703 C29.85828789 -0.06001033 36.5360595 -0.06556405 43.21388525 -0.06668179 C48.64872418 -0.06763521 54.08355156 -0.07176014 59.51838684 -0.07808304 C74.96233849 -0.09568201 90.40626245 -0.10492432 105.8502242 -0.10342209 C107.09690655 -0.10330222 107.09690655 -0.10330222 108.36877441 -0.10317993 C109.20092336 -0.10309817 110.03307232 -0.10301641 110.8904379 -0.10293217 C124.35965865 -0.10212023 137.82876733 -0.12123808 151.29795569 -0.14945666 C165.16252577 -0.17827185 179.02704135 -0.19199215 192.89164209 -0.19026911 C200.6615895 -0.18960806 208.43141948 -0.19497429 216.20133972 -0.21662521 C222.82002626 -0.23495138 229.43854219 -0.23909177 236.05724329 -0.22560637 C239.42585996 -0.21913284 242.79388707 -0.2209804 246.16251373 -0.23631287 C277.61803487 -0.37011426 305.89477815 6.00059645 330.09924316 27.26742554 C330.90490723 27.93000366 331.71057129 28.59258179 332.54064941 29.27523804 C351.32432756 45.20755972 362.88058388 67.60597859 368.41174316 91.32992554 C368.57134521 92.00072144 368.73094727 92.67151733 368.89538574 93.36264038 C372.1264644 108.45290171 371.2482684 124.43809233 371.24450684 139.76986694 C371.24750399 142.22073416 371.2509078 144.6716009 371.25468445 147.12246704 C371.26256213 153.05709927 371.26573663 158.99172214 371.26629683 164.92635854 C371.26677476 169.75848742 371.26884323 174.59061308 371.27199745 179.42274094 C371.28078808 193.17279859 371.28541932 206.92284849 371.28466698 220.67290898 C371.28460704 221.78099594 371.28460704 221.78099594 371.2845459 222.91146851 C371.28450502 223.65111239 371.28446414 224.39075627 371.28442202 225.1528136 C371.28401598 237.12662669 371.29357905 249.10040828 371.30768427 261.07421227 C371.32210857 273.41791623 371.32895114 285.76160489 371.32809049 298.10531747 C371.32776061 305.01562546 371.33041517 311.9259004 371.34126854 318.83620071 C371.35142243 325.34194991 371.3509769 331.84764771 371.34375191 338.35340118 C371.34271549 340.72472867 371.34501204 343.09606065 371.35111237 345.46738052 C371.4479373 385.75272401 365.24495982 420.57977806 336.09924316 450.26742554 C315.49954612 470.46737103 287.04963335 482.61973696 258.1917572 482.53485107 C256.46936682 482.54164774 256.46936682 482.54164774 254.71218067 482.54858172 C250.89120861 482.56117155 247.07038007 482.55960883 243.24938965 482.55795288 C240.49867725 482.56285891 237.74797472 482.57069212 234.99726868 482.57830811 C228.31578674 482.59486098 221.63434011 482.60041509 214.95283937 482.60153286 C209.51560816 482.60248622 204.07838851 482.60661084 198.64116096 482.61293411 C183.19214365 482.6305323 167.74315403 482.63977542 152.29412662 482.63827316 C151.04705018 482.6381533 151.04705018 482.6381533 149.77478027 482.63803101 C148.94236901 482.63794924 148.10995775 482.63786748 147.25232191 482.63778324 C133.7759591 482.63697114 120.29970828 482.65609344 106.82337784 482.68430774 C92.95316253 482.71311516 79.08300169 482.72684367 65.21275574 482.72512019 C57.43892785 482.72445891 49.66521731 482.72983526 41.89141655 482.75147629 C35.27013959 482.76979208 28.64903314 482.77395109 22.02774166 482.76045744 C18.65722367 482.75397904 15.28729532 482.75584495 11.91676712 482.77116394 C-19.30435852 482.90378625 -47.90427745 476.3515117 -71.90075684 455.26742554 C-72.7064209 454.60484741 -73.51208496 453.94226929 -74.34216309 453.25961304 C-98.17495777 433.04462913 -109.88462813 403.69526624 -112.50200653 373.19244385 C-113.2732877 362.83607369 -113.1791343 352.4625404 -113.1595459 342.08383179 C-113.16226336 339.63207903 -113.16582849 337.18032709 -113.17016602 334.72857666 C-113.17826907 328.81480538 -113.17718018 322.901081 -113.17134073 316.98731112 C-113.16678703 312.17248543 -113.16622717 307.35767392 -113.16838837 302.54284668 C-113.16884807 301.50712283 -113.16884807 301.50712283 -113.16931705 300.45047528 C-113.16995663 299.04690384 -113.17060506 297.64333242 -113.17126223 296.23976099 C-113.17693825 283.13972393 -113.17045079 270.03971504 -113.1596615 256.9396826 C-113.15072849 245.74780939 -113.15228131 234.55597769 -113.16149902 223.36410522 C-113.17225024 210.30456709 -113.17638918 197.24505353 -113.1702745 184.18551159 C-113.16963753 182.78767586 -113.16900879 181.38984013 -113.16838837 179.99200439 C-113.16807982 179.3045983 -113.16777126 178.61719221 -113.16745336 177.90895563 C-113.1657409 173.11105058 -113.16860987 168.31316138 -113.17334747 163.51525879 C-113.17960779 157.03404702 -113.17502521 150.55289456 -113.16355896 144.07168961 C-113.16094136 141.71003472 -113.16162699 139.34837317 -113.16608429 136.98672104 C-113.1850878 125.88413061 -113.04585429 114.86423047 -112.01739502 103.80282593 C-111.9027589 102.56781043 -111.9027589 102.56781043 -111.78580689 101.30784512 C-108.74876975 72.29555919 -93.72642137 45.43417067 -71.67810059 26.45101929 C-50.92467777 10.13433384 -26.64837318 -0.07843741 0 0 Z " fill="#000000" transform="translate(126.9007568359375,14.732574462890625)"/>
<path d="M0 0 C2.65101789 -0.00734886 5.30201052 -0.01584637 7.95301819 -0.02566528 C14.37976738 -0.04660777 20.80642615 -0.05126657 27.23320546 -0.0494774 C32.46393588 -0.04816398 37.69463837 -0.05200331 42.92536354 -0.05940247 C44.43853388 -0.06150192 45.95170422 -0.06359952 47.46487457 -0.06569529 C48.21829388 -0.06673881 48.9717132 -0.06778234 49.74796341 -0.06885749 C63.96288866 -0.08771514 78.17776218 -0.08672359 92.39269475 -0.07988816 C105.35736892 -0.07431733 118.32184522 -0.09512648 131.28647318 -0.12824863 C144.64038163 -0.16209699 157.9941956 -0.17714007 171.34814769 -0.1725316 C178.8285583 -0.17029797 186.30878613 -0.17536656 193.78915977 -0.20042419 C200.15894678 -0.22158218 206.5284508 -0.22488756 212.89825001 -0.2061246 C216.13931922 -0.19705436 219.37976153 -0.19833523 222.62080765 -0.21648026 C247.64836428 -0.34682953 270.29711119 3.57982962 289.7434082 20.41992188 C290.96543945 21.35964844 290.96543945 21.35964844 292.2121582 22.31835938 C306.79711161 34.42747193 315.56787228 54.1276728 318.7434082 72.41992188 C319.12531836 77.38563297 319.12471029 82.31972339 319.08398438 87.2980957 C319.08313574 88.7384184 319.08361785 90.17874238 319.08531189 91.61906433 C319.08616406 95.48605686 319.06866637 99.35276375 319.04759002 103.21969056 C319.02869161 107.27687224 319.0270625 111.33406222 319.02351379 115.39128113 C319.01423166 123.05492589 318.98967043 130.71844053 318.95946532 138.38202828 C318.92580119 147.11491422 318.90940526 155.84780674 318.89437902 164.58074152 C318.86311693 182.52720843 318.81043194 200.47355465 318.7434082 218.41992188 C315.99547411 217.0818246 313.70131888 215.71968077 311.3449707 213.76757812 C310.70817383 213.24421875 310.07137695 212.72085938 309.4152832 212.18164062 C308.73981445 211.62089844 308.0643457 211.06015625 307.3684082 210.48242188 C305.92387345 209.29527695 304.47854727 208.10909446 303.0324707 206.92382812 C301.94820801 206.0346167 301.94820801 206.0346167 300.84204102 205.12744141 C297.84005951 202.68492644 294.7959744 200.29869961 291.7434082 197.91992188 C286.00283398 193.43853334 280.346461 188.86034427 274.7043457 184.25585938 C269.86451809 180.31298823 264.97550158 176.43952693 260.05224609 172.6015625 C256.83519324 170.0863036 253.6495721 167.53778203 250.48950195 164.95117188 C249.77213867 164.36400391 249.05477539 163.77683594 248.31567383 163.171875 C246.92782783 162.03290166 245.54227746 160.89112328 244.15942383 159.74609375 C237.11976792 153.79687109 237.11976792 153.79687109 228.3059082 151.98242188 C227.39969727 151.96308594 226.49348633 151.94375 225.55981445 151.92382812 C219.40980938 153.00711612 214.7604826 157.97529428 210.1809082 161.98242188 C208.94036339 163.05703394 207.69947026 164.13124403 206.45825195 165.20507812 C205.8367627 165.74406738 205.21527344 166.28305664 204.57495117 166.83837891 C201.81608142 169.22067139 199.03059053 171.57088426 196.2434082 173.91992188 C189.37832477 179.71631491 182.5596028 185.5661905 175.7434082 191.41992188 C168.39489752 197.73080501 161.03600503 204.02796567 153.63549805 210.27783203 C147.30916456 215.62470294 141.02731241 221.02332019 134.7434082 226.41992188 C126.32534143 233.64933719 117.88786688 240.8541564 109.40942383 248.01269531 C106.41479588 250.54215538 103.42305951 253.07503315 100.4309082 255.60742188 C99.33065959 256.5384254 98.23040032 257.46941634 97.13012695 258.40039062 C96.34250977 259.06683594 95.55489258 259.73328125 94.7434082 260.41992188 C90.40709528 257.63923691 86.45286856 254.6051809 82.5559082 251.23242188 C81.40938653 250.25123551 80.26224129 249.27077735 79.11450195 248.29101562 C78.54715332 247.80616699 77.97980469 247.32131836 77.39526367 246.82177734 C73.23243945 243.28897559 68.9791319 239.86456188 64.7434082 236.41992188 C59.07732213 231.79436704 53.4204178 227.15784986 47.77441406 222.5078125 C46.333083 221.32092999 44.89118503 220.13473559 43.44873047 218.94921875 C39.64549979 215.82126503 35.85498572 212.67955856 32.08325195 209.51367188 C30.94557373 208.5636731 30.94557373 208.5636731 29.78491211 207.59448242 C28.3365757 206.38457423 26.89200917 205.17013375 25.4519043 203.95043945 C19.43992254 198.94241025 14.33777798 195.64050437 6.30200195 195.96289062 C-2.25757077 197.49185247 -9.40168886 205.84638213 -15.76831055 211.39648438 C-20.50366201 215.51969557 -25.37971795 219.4660927 -30.2565918 223.41992188 C-38.87111944 230.45001553 -47.45394155 237.51838126 -56.03491211 244.58935547 C-58.1996907 246.37303787 -60.36478305 248.15633846 -62.5300293 249.93945312 C-63.22870117 250.5148584 -63.92737305 251.09026367 -64.6472168 251.68310547 C-66.05063696 252.83865304 -67.45428193 253.99392763 -68.8581543 255.14892578 C-72.53065407 258.17108705 -76.19807791 261.19912851 -79.8581543 264.23632812 C-80.99414062 265.17702148 -80.99414062 265.17702148 -82.15307617 266.13671875 C-83.59085681 267.32751867 -85.02716661 268.5200978 -86.46166992 269.71484375 C-87.44683594 270.52985352 -87.44683594 270.52985352 -88.4519043 271.36132812 C-89.01925293 271.83256104 -89.58660156 272.30379395 -90.17114258 272.78930664 C-92.0450444 274.25451272 -93.94930138 275.64288089 -95.88693237 277.02183533 C-96.51780195 277.47118407 -97.14867153 277.92053282 -97.79865837 278.38349819 C-98.2797764 278.72551801 -98.76089443 279.06753782 -99.2565918 279.41992188 C-99.35023563 252.85449517 -99.42066904 226.28909338 -99.46384048 199.72353458 C-99.48442288 187.38732939 -99.51246054 175.05122705 -99.55834961 162.71508789 C-99.59835002 151.9567962 -99.62405599 141.19857904 -99.63294578 130.44021505 C-99.63813821 124.74928043 -99.6502515 119.05855893 -99.67951202 113.36769295 C-99.70689013 107.99886675 -99.714992 102.63033919 -99.70902252 97.26144981 C-99.71011282 95.30286658 -99.71793205 93.34427217 -99.7334137 91.38574982 C-99.84576116 76.425005 -98.8363008 61.37789934 -91.4440918 47.98242188 C-91.10079834 47.32902832 -90.75750488 46.67563477 -90.40380859 46.00244141 C-87.44915201 40.49822953 -84.07677393 35.36424738 -80.2565918 30.41992188 C-79.5140918 29.40929687 -78.7715918 28.39867187 -78.0065918 27.35742188 C-57.53108998 3.8337871 -29.27805224 -0.03844163 0 0 Z " fill="#5FB6FE" transform="translate(146.256591796875,46.580078125)"/>
<path d="M0 0 C2.19405713 0.85632697 3.62323336 1.83578851 5.42578125 3.34594727 C6.06257813 3.8725293 6.699375 4.39911133 7.35546875 4.94165039 C8.36867188 5.79533203 8.36867188 5.79533203 9.40234375 6.66625977 C10.84683669 7.86256255 12.29216358 9.05785901 13.73828125 10.25219727 C14.46112305 10.85128906 15.18396484 11.45038086 15.92871094 12.06762695 C18.92243528 14.52640939 21.96976687 16.91270263 25.02734375 19.29125977 C30.01911471 23.1851964 34.94138194 27.15571502 39.83984375 31.16625977 C45.30021082 35.63299198 50.83934725 39.97213408 56.46484375 44.22875977 C63.16820817 49.30113715 69.69652814 54.55382827 76.14428711 59.94726562 C76.79792236 60.49261963 77.45155762 61.03797363 78.125 61.59985352 C78.68711182 62.07221436 79.24922363 62.5445752 79.82836914 63.03125 C81.88072752 64.82871475 81.88072752 64.82871475 84.01832581 65.66746521 C86.76124814 67.10903238 88.20529155 68.25693615 90.02734375 70.79125977 C91.25250065 77.01864205 91.08013878 83.19663839 90.984375 89.52172852 C90.98214178 91.39577613 90.98273392 93.26982903 90.98600769 95.14387512 C90.98426461 99.07762907 90.95518181 103.00992469 90.90551758 106.94335938 C90.84370827 111.93035235 90.8381615 116.91532219 90.85249805 121.90261364 C90.85898892 125.78011157 90.83993546 129.65717155 90.81323814 133.53457069 C90.80251453 135.36933099 90.79804609 137.20414092 90.80051613 139.03893089 C90.7879232 161.36960837 85.52880569 183.88329452 70.02734375 200.79125977 C69.15335937 201.75676758 68.279375 202.72227539 67.37890625 203.71704102 C52.50142245 219.62837541 32.03270364 229.1318967 10.18388176 230.16285706 C3.25054533 230.35985545 -3.68201061 230.33278322 -10.61743164 230.30883789 C-13.27376696 230.31426761 -15.93005793 230.32125234 -18.58638 230.33007812 C-25.01375688 230.34774068 -31.44094551 230.34407887 -37.86832935 230.33242756 C-43.09758807 230.32334549 -48.32679452 230.3221897 -53.55605888 230.32652283 C-54.30403425 230.32713576 -55.05200961 230.32774869 -55.82265089 230.3283802 C-57.34275713 230.32965926 -58.86286335 230.33095612 -60.38296955 230.33227056 C-74.59211988 230.34364021 -88.80116649 230.3306193 -103.01029979 230.3090691 C-115.16976018 230.29119771 -127.32906776 230.29430956 -139.48852539 230.31274414 C-153.65293319 230.3342087 -167.81725043 230.34254576 -181.98167223 230.33029509 C-183.49547126 230.32902106 -185.00927032 230.32776357 -186.52306938 230.32652283 C-187.26764119 230.32590573 -188.012213 230.32528862 -188.77934759 230.32465282 C-193.995352 230.3212169 -199.21129836 230.32698997 -204.42729378 230.33644104 C-210.79378283 230.34772463 -217.16007494 230.34448861 -223.52654178 230.32331806 C-226.76717112 230.31289272 -230.00741037 230.31073566 -233.24804688 230.32191467 C-249.73361349 230.3735128 -265.41396071 230.0854943 -280.28515625 222.04125977 C-280.9397583 221.70126953 -281.59436035 221.3612793 -282.26879883 221.01098633 C-288.24175897 217.82365148 -293.6815427 214.00997006 -298.97265625 209.79125977 C-299.80796875 209.15446289 -300.64328125 208.51766602 -301.50390625 207.86157227 C-317.83647008 194.16496019 -326.69424699 171.61227554 -328.625 150.83032227 C-329.67083158 133.05255788 -329.67083158 133.05255788 -325.421875 127.99829102 C-322.74915501 125.530189 -319.7891126 123.60522871 -316.64746094 121.78540039 C-314.31567774 120.40128652 -312.29889216 118.71733793 -310.22265625 116.97875977 C-309.42472656 116.34583008 -308.62679687 115.71290039 -307.8046875 115.06079102 C-301.88696246 110.31844861 -296.05856758 105.46564019 -290.21044922 100.63793945 C-286.6335383 97.68618796 -283.05297294 94.73887844 -279.47265625 91.79125977 C-278.05597078 90.62461594 -276.63930414 89.45794923 -275.22265625 88.29125977 C-272.38932292 85.95792643 -269.55598958 83.6245931 -266.72265625 81.29125977 C-266.02132568 80.7136792 -265.31999512 80.13609863 -264.59741211 79.54101562 C-263.18161563 78.37509429 -261.76576282 77.20924135 -260.34985352 76.04345703 C-256.07913303 72.5269997 -251.81040478 69.00814667 -247.54370117 65.48681641 C-246.13258489 64.32404625 -244.72000868 63.16304535 -243.3059082 62.00390625 C-239.67438069 59.02712663 -236.06590402 56.02801786 -232.48828125 52.98657227 C-231.04559326 51.77561053 -229.60288563 50.56467219 -228.16015625 49.35375977 C-227.4962085 48.77940186 -226.83226074 48.20504395 -226.14819336 47.61328125 C-224.265625 46.04516602 -224.265625 46.04516602 -220.97265625 43.79125977 C-216.72673164 44.26461437 -214.17347621 46.92925006 -211.09765625 49.66625977 C-206.5062767 53.65703229 -201.84870963 57.50904186 -197.03515625 61.22875977 C-191.56152203 65.47713557 -186.27071284 69.90000605 -181.03173828 74.43359375 C-174.14799256 80.38786799 -167.08458222 86.11186077 -159.97265625 91.79125977 C-161.54842474 96.07411772 -164.81086168 98.47628729 -168.22265625 101.29125977 C-169.49231774 102.35881322 -170.76184513 103.42652618 -172.03125 104.49438477 C-173.00940674 105.31132812 -173.00940674 105.31132812 -174.00732422 106.14477539 C-178.84630963 110.19870305 -183.62326421 114.32641462 -188.40673828 118.44555664 C-189.86112638 119.69541432 -191.32096783 120.93891858 -192.78125 122.18188477 C-193.58691406 122.87797852 -194.39257812 123.57407227 -195.22265625 124.29125977 C-195.9084375 124.87907227 -196.59421875 125.46688477 -197.30078125 126.07250977 C-200.67999111 129.54646382 -201.26545999 132.5116337 -201.28515625 137.29125977 C-201.30191406 138.22969727 -201.31867188 139.16813477 -201.3359375 140.13500977 C-200.91747514 143.19473458 -199.91534519 144.45388204 -197.97265625 146.79125977 C-197.97265625 147.45125977 -197.97265625 148.11125977 -197.97265625 148.79125977 C-197.18890625 149.10063477 -196.40515625 149.41000977 -195.59765625 149.72875977 C-192.97265625 150.79125977 -192.97265625 150.79125977 -190.97265625 151.79125977 C-183.32918873 152.45017938 -178.52762702 150.75868111 -172.6328125 145.83813477 C-170.93854047 144.30713382 -169.25813589 142.76068602 -167.58984375 141.20141602 C-165.06047612 138.87213269 -162.46226783 136.69804254 -159.78515625 134.54125977 C-153.34716719 129.32739539 -147.12102059 123.88084723 -140.87353516 118.44213867 C-132.92659943 111.54036891 -124.90587726 104.72438691 -116.86450195 97.93310547 C-110.53818336 92.58639526 -104.25647288 87.18778624 -97.97265625 81.79125977 C-90.62414557 75.48037663 -83.26525308 69.18321597 -75.86474609 62.93334961 C-69.5384126 57.5864787 -63.25656046 52.18786145 -56.97265625 46.79125977 C-49.62414557 40.48037663 -42.26525308 34.18321597 -34.86474609 27.93334961 C-31.49661619 25.08668402 -28.13833197 22.22894692 -24.79052734 19.35839844 C-23.62681992 18.36091181 -22.46179379 17.36496143 -21.29541016 16.37060547 C-18.20091189 13.72762224 -15.14126184 11.05373983 -12.1171875 8.33032227 C-11.48611084 7.76949951 -10.85503418 7.20867676 -10.20483398 6.63085938 C-8.99070321 5.55079852 -7.7853249 4.46079628 -6.59008789 3.35986328 C-2.48812486 -0.26328549 -2.48812486 -0.26328549 0 0 Z " fill="#00E398" transform="translate(374.97265625,235.208740234375)"/>
<path d="M0 0 C13.83731957 9.23173327 22.35786971 22.3027104 26.08984375 38.37890625 C28.68801921 54.64574394 25.00495574 68.76135846 16.62890625 82.75390625 C7.60718722 94.8377416 -5.60083528 104.83542953 -20.75 107.50390625 C-39.61586023 109.30333256 -55.59786949 105.69200843 -70.62109375 93.50390625 C-82.07073085 82.7906566 -88.95005669 68.75971289 -89.609375 53.1171875 C-90.0108398 34.74022689 -85.38604062 21.56807596 -72.6484375 8.00390625 C-52.87228203 -11.53479967 -23.61921631 -13.71771078 0 0 Z " fill="#010101" transform="translate(218.37109375,87.24609375)"/>
<path d="M0 0 C6.43611262 3.99038983 9.48226971 9.95552861 12 17 C13.48255545 25.36745309 11.3203538 32.03911637 6.6796875 38.97265625 C2.47306758 44.38609336 -2.60014088 46.86671363 -9 49 C-17.07709852 49.94076023 -23.34172035 48.75434184 -30 44 C-35.93125274 38.59530739 -39.46548272 33.79940253 -40.37109375 25.66796875 C-40.54601269 16.5001582 -39.4558571 10.67146309 -33.0625 3.96875 C-23.82605156 -4.56796749 -11.25766277 -5.82986108 0 0 Z " fill="#FCCF64" transform="translate(201,114)"/>
</svg>
